# xmcd
#
# Track frame offsets:
#	150
#	17395
#	31841
#	51138
#	65883
#	91151
#	105854
#	121375
#	137373
#	165804
#
# Disc length: 2428 seconds
# Revision: 0
# Processed by: cddbd v1.5.2PL0 Copyright (c) Steve Scherf et al.
# Submitted via: dBpowerAMP V12.0
#
DISCID=6a097a0a
DTITLE=The Yearlings - All The Wandering
DYEAR=2014
DGENRE=Country
TTITLE0=All The Wandering
TTITLE1=Hearts Of It All
TTITLE2=Blue Sky Boy
TTITLE3=Soldiers Fortune
TTITLE4=Way Out East
TTITLE5=Far Too Much
TTITLE6=Valley Of Souls
TTITLE7=What Becomes Of Life
TTITLE8=Plain Gold Ring
TTITLE9=Breathless Eric
EXTD=
EXTT0=
EXTT1=
EXTT2=
EXTT3=
EXTT4=
EXTT5=
EXTT6=
EXTT7=
EXTT8=
EXTT9=
PLAYORDER=
